[Header]
FileType HTR
DataType HTRS
FileVersion 1
NumSegments 22
NumFrames 4
DataFrameRate 24
EulerRotationOrder ZYX
CalibrationUnits mm
RotationUnits Degrees
GlobalAxisofGravity Y
BoneLengthAxis Y
ScaleFactor 1.0
[SegmentNames&Hierarchy]
reference	GLOBAL
Hips	reference
Spine	Hips
Spine1	Spine
Neck	Spine1
Head	Neck
LeftShoulder	Spine1
LeftArm	LeftShoulder
LeftForeArm	LeftArm
LeftHand	LeftForeArm
RightShoulder	Spine1
RightArm	RightShoulder
RightForeArm	RightArm
RightHand	RightForeArm
LeftUpLeg	Hips
LeftLeg	LeftUpLeg
LeftFoot	LeftLeg
LeftToeBase	LeftFoot
RightUpLeg	Hips
RightLeg	RightUpLeg
RightFoot	RightLeg
RightToeBase	RightFoot
[BasePosition]
reference	0	0	0	0	0	0	1
Hips	0	0	0	0	0	0	1
Spine	0	0	0	0	-0	90	1
Spine1	0	0	0	0	0	0	1
Neck	0	0	0	-7.352430803	-7.352430803	90	1
Head	0	0	0	0	-0	90	1
LeftShoulder	0	0	0	0	0	0	1
LeftArm	0	0	0	0	0	0	1
LeftForeArm	0	0	0	0	0	0	1
LeftHand	0	0	0	0	0	0	1
RightShoulder	0	0	0	0	-0	180	1
RightArm	0	0	0	0	-0	180	1
RightForeArm	0	0	0	0	-0	180	1
RightHand	0	0	0	0	-0	180	1
LeftUpLeg	0	0	0	0	-0	-90	1
LeftLeg	0	0	0	0	-0	-90	1
LeftFoot	0	0	0	66.57150701	-66.57150701	-90	1
LeftToeBase	0	0	0	0	-90	0	1
RightUpLeg	0	0	0	0	-0	-90	1
RightLeg	0	0	0	0	-0	-90	1
RightFoot	0	0	0	66.57150701	-66.57150701	-90	1
RightToeBase	0	0	0	0	-90	0	1
[reference]
64	0	0	0	0	-0	0	1.0
65	0	0	0	0	-0	0	1.0
66	0	0	0	0	-0	0	1.0
67	0	0	0	0	-0	0	1.0
[Hips]
64	-1.308330297	8.887809753	0.33310619	-169.9075317	-98.9173584	179.5064545	1.0
65	-1.371785283	8.887809753	0.3192121983	-170.8324738	-97.73493195	180.3510742	1.0
66	-1.422025919	8.887809753	0.3053268492	-170.8344727	-96.33892059	180.1000366	1.0
67	-1.459280849	8.887809753	0.2913961411	-171.5175476	-94.85777283	180.3539124	1.0
[Spine]
64	0	0.7478299737	0	-17.36681938	-5.40205574	-90.45629883	1.0
65	0	0.7478299737	0	-17.56049919	-4.743992805	-90.41584778	1.0
66	0	0.7478299737	0	-17.56342316	-3.962981701	-90.30565643	1.0
67	0	0.7478299737	0	-17.18353081	-3.415259361	-90.18849182	1.0
[Spine1]
64	0	2.049309969	0	9.857048035	-1.500980139	-3.122992516	1.0
65	0	2.049309969	0	10.39225674	-1.271367788	-3.089201212	1.0
66	0	2.049309969	0	11.06591892	-1.031863451	-2.96307826	1.0
67	0	2.049309969	0	11.58611488	-0.8244019747	-2.93124795	1.0
[Neck]
64	0	2.231709957	0	3.559643507	-3.477580786	-85.86338806	1.0
65	0	2.231709957	0	3.608693361	-3.236867428	-86.13345337	1.0
66	0	2.231709957	0	3.384024858	-3.005171776	-86.14282227	1.0
67	0	2.231709957	0	3.207889318	-2.766565084	-86.07266235	1.0
[Head]
64	0	1.413589954	0.1823999882	-11.86272144	-10.53385353	-87.23135376	1.0
65	0	1.413589954	0.1823999882	-12.2229681	-10.29990864	-87.1968689	1.0
66	0	1.413589954	0.1823999882	-12.37409782	-10.07271957	-87.14813232	1.0
67	0	1.413589954	0.1823999882	-12.77725601	-9.818330765	-87.02020264	1.0
[LeftShoulder]
64	0.3649300039	1.825889945	-0.04271000251	-9.161139488	-8.10567379	2.199771404	1.0
65	0.3649300039	1.825889945	-0.04271000251	-8.617121696	-7.832635403	2.537251711	1.0
66	0.3649300039	1.825889945	-0.04271000251	-8.057765961	-7.778851986	2.859429359	1.0
67	0.3649300039	1.825889945	-0.04271000251	-7.468032837	-7.579432964	3.167998552	1.0
[LeftArm]
64	1.24003005	0	0	12.51750374	8.362344742	-77.50888062	1.0
65	1.24003005	0	0	7.415241241	10.16167831	-78.46780396	1.0
66	1.24003005	0	0	3.236867189	11.94029617	-79.088974	1.0
67	1.24003005	0	0	-0.6164515018	13.43185139	-79.50518036	1.0
[LeftForeArm]
64	2.847419977	0	0	-4.615871429	-10.10708332	-7.125086308	1.0
65	2.847419977	0	0	-4.45113039	-5.275985718	-8.993623734	1.0
66	2.847419977	0	0	-4.318367481	-2.731778383	-10.23657703	1.0
67	2.847419977	0	0	-3.14976573	-1.87640512	-11.39589024	1.0
[LeftHand]
64	2.258270025	0	0	-5.295685768	-3.040550709	1.722102404	1.0
65	2.258270025	0	0	-4.893005371	-1.013317704	3.032501459	1.0
66	2.258270025	0	0	-4.563371658	-0.02177314647	2.125589132	1.0
67	2.258270025	0	0	-3.336359024	0.38682127	0.1793809086	1.0
[RightShoulder]
64	-0.3646599948	1.825889945	-0.04271000251	-5.139232159	3.947638273	180.3556976	1.0
65	-0.3646599948	1.825889945	-0.04271000251	-4.74543047	4.098620892	180.5082245	1.0
66	-0.3646599948	1.825889945	-0.04271000251	-4.414665222	4.236954689	180.4910736	1.0
67	-0.3646599948	1.825889945	-0.04271000251	-4.14999342	4.368022919	180.4119263	1.0
[RightArm]
64	-1.24003005	0	0	14.38556194	-7.742284775	-100.3357925	1.0
65	-1.24003005	0	0	11.11635399	-8.69411087	-99.47634125	1.0
66	-1.24003005	0	0	9.559484482	-9.431460381	-98.89198303	1.0
67	-1.24003005	0	0	9.422564507	-9.5376091	-99.13234711	1.0
[RightForeArm]
64	-2.847419977	0	0	10.45419884	11.11495209	186.8642578	1.0
65	-2.847419977	0	0	11.27714729	8.283111572	187.959671	1.0
66	-2.847419977	0	0	11.42605972	7.898267746	188.2788086	1.0
67	-2.847419977	0	0	11.28691959	8.995876312	188.9415283	1.0
[RightHand]
64	-2.258270025	0	0	9.720276833	4.96529007	178.5363617	1.0
65	-2.258270025	0	0	10.70239735	3.032129526	180.078125	1.0
66	-2.258270025	0	0	10.89444351	2.429682732	181.7881927	1.0
67	-2.258270025	0	0	10.66966438	3.430561543	183.0231628	1.0
[LeftUpLeg]
64	0.9119900465	0	0	2.833536148	10.11533546	91.88632202	1.0
65	0.9119900465	0	0	1.784825921	9.265313148	92.27374268	1.0
66	0.9119900465	0	0	0.6393944621	9.15737915	92.96228027	1.0
67	0.9119900465	0	0	-0.7125818729	8.686915398	93.51564026	1.0
[LeftLeg]
64	0	-4.371409893	0	19.90520859	0.2189136297	86.10540771	1.0
65	0	-4.371409893	0	22.93120766	2.757117033	86.11135864	1.0
66	0	-4.371409893	0	26.42191887	5.06151104	86.16279602	1.0
67	0	-4.371409893	0	30.26590538	6.129824638	85.66493225	1.0
[LeftFoot]
64	0	-3.918009996	0	-175.8172455	108.5492249	-146.2780151	1.0
65	0	-3.918009996	0	-179.0423126	110.2033081	-151.4716644	1.0
66	0	-3.918009996	0	-180.1495056	112.0454254	-154.965332	1.0
67	0	-3.918009996	0	-180.245697	112.3192444	-157.1472321	1.0
[LeftToeBase]
64	0	-0.5927900076	1.367989898	0	0	0	1.0
65	0	-0.5927900076	1.367989898	0	0	0	1.0
66	0	-0.5927900076	1.367989898	0	0	0	1.0
67	0	-0.5927900076	1.367989898	0	0	0	1.0
[RightUpLeg]
64	-0.9119900465	0	0	-2.655539036	-5.740728378	96.44807434	1.0
65	-0.9119900465	0	0	-2.086693048	-4.850013256	96.22786713	1.0
66	-0.9119900465	0	0	-1.445120335	-3.320759773	96.13214111	1.0
67	-0.9119900465	0	0	-0.6998816729	-2.591375828	95.86286926	1.0
[RightLeg]
64	0	-4.371409893	0	-1.845790625	-1.206834078	92.79512787	1.0
65	0	-4.371409893	0	-1.913796663	-1.23900938	92.84602356	1.0
66	0	-4.371409893	0	-2.056155443	-1.32567358	92.81209564	1.0
67	0	-4.371409893	0	-2.144981623	-1.146350265	92.95252991	1.0
[RightFoot]
64	0	-3.918009996	0	55.89716339	70.92442322	90.00837708	1.0
65	0	-3.918009996	0	56.02340698	70.96684265	90.65055847	1.0
66	0	-3.918009996	0	56.29162598	70.78768158	91.04173279	1.0
67	0	-3.918009996	0	57.39053726	70.80493164	92.58843231	1.0
[RightToeBase]
64	0	-0.5927900076	1.367989898	0	0	0	1.0
65	0	-0.5927900076	1.367989898	0	0	0	1.0
66	0	-0.5927900076	1.367989898	0	0	0	1.0
67	0	-0.5927900076	1.367989898	0	0	0	1.0
[EndOfFile]
